<?xml version="1.0" standalone="no"?>
<!DOCTYPE svg PUBLIC "-//W3C//DTD SVG 20010904//EN"
 "http://www.w3.org/TR/2001/REC-SVG-20010904/DTD/svg10.dtd">
<svg version="1.0" xmlns="http://www.w3.org/2000/svg"
 width="300.000000pt" height="300.000000pt" viewBox="0 0 300.000000 300.000000"
 preserveAspectRatio="xMidYMid meet">
<metadata>
Created by potrace 1.11, written by Peter Selinger 2001-2013
</metadata>
<g transform="translate(0.000000,300.000000) scale(0.100000,-0.100000)"
fill="#000000" stroke="none">
<path d="M325 2967 c-44 -18 -86 -36 -93 -40 -8 -6 -12 -41 -12 -112 l0 -104
-107 -73 -108 -73 0 -1214 c0 -1181 1 -1216 19 -1253 11 -21 38 -50 59 -65
l40 -28 1376 0 c1374 0 1376 0 1416 21 22 11 50 36 63 54 l22 33 0 1228 0
1228 -105 71 -105 72 0 108 0 108 -37 13 c-21 6 -42 15 -48 19 -5 4 -32 15
-59 24 -45 14 -155 16 -1145 15 l-1096 0 -80 -32z"/>
</g>
</svg>
